<svg version="1.1" id="Layer_1" xmlns="http://www.w3.org/2000/svg" xmlns:xlink="http://www.w3.org/1999/xlink" x="0px" y="0px"
	 width="100%" viewBox="0 0 983 1415" enable-background="new 0 0 983 1415" xml:space="preserve">
<path fill="#FFFFFF" opacity="1.000000" stroke="none" 
	d="
M458.000000,1416.000000 
	C305.705719,1416.000000 153.411423,1416.000000 1.058565,1416.000000 
	C1.058565,944.333313 1.058565,472.666656 1.058565,1.000000 
	C2.686309,1.000000 4.352540,1.000000 6.526514,1.308718 
	C7.057890,1.822205 7.081523,2.026974 7.185093,2.678051 
	C7.275520,3.957524 7.295185,4.790689 7.295198,5.623854 
	C7.296640,94.785072 7.315145,183.946304 7.230863,273.107452 
	C7.227387,276.784058 7.768210,278.554932 12.034363,279.324249 
	C53.612926,286.821838 95.516724,290.632721 137.741638,290.864258 
	C170.072128,291.041534 202.404160,290.926697 234.735489,290.957336 
	C261.428467,290.982635 287.972198,292.826569 314.380493,296.891632 
	C385.786713,307.883270 444.889221,340.086151 489.358521,397.762115 
	C490.291656,398.972351 491.709259,399.809052 493.159790,400.830139 
	C493.581604,400.559845 493.744385,400.279480 494.123871,399.740875 
	C526.950012,357.021912 568.002075,326.209930 619.069336,309.310333 
	C658.989624,296.099579 700.253113,291.522614 742.043091,291.073425 
	C778.194153,290.684845 814.353699,291.125000 850.506470,290.828461 
	C891.543945,290.491882 932.277832,286.662262 972.694275,279.392303 
	C976.970154,278.623169 977.911804,277.119263 977.906189,273.024963 
	C977.784180,184.387222 977.813354,95.749260 977.813354,7.111343 
	C977.813354,5.381653 977.813354,3.651963 977.813354,1.608898 
	C975.844116,1.828657 974.691589,1.889642 973.564697,2.092846 
	C939.411133,8.251491 904.890625,11.300815 870.294922,12.706703 
	C827.692505,14.437963 785.041992,15.086577 742.406128,15.860620 
	C712.406494,16.405252 682.523560,17.990049 652.731567,21.802198 
	C598.232300,28.775862 548.703552,47.649921 505.343567,81.850502 
	C501.052307,85.235298 496.493805,88.281250 491.756531,91.221680 
	C489.754822,89.618858 488.046875,88.290108 486.358368,86.937103 
	C451.062958,58.655083 412.006714,38.028435 367.575317,28.150543 
	C330.178833,19.836643 292.232239,16.478855 254.057007,16.135561 
	C190.427429,15.563361 126.801476,15.163224 63.409283,8.888246 
	C45.878906,7.152973 28.467489,4.215927 11.001066,1.622707 
	C11.000641,1.415138 11.000000,1.000000 11.000000,1.000000 
	C335.286346,1.000000 659.572693,1.000000 983.929504,1.000000 
	C983.929504,472.551300 983.929504,944.102600 983.929504,1416.000000 
	C831.970825,1416.000000 679.941345,1416.000000 527.691589,1415.653442 
	C572.610291,1411.864136 616.423950,1402.338989 659.238770,1386.604980 
	C665.946411,1383.657471 672.263000,1380.655151 678.689575,1377.910156 
	C747.470703,1348.532227 807.278503,1306.552002 856.504028,1250.106323 
	C936.217651,1158.700684 976.851379,1052.034912 977.652527,930.869446 
	C978.476807,806.215027 977.814087,681.550903 977.953430,556.891235 
	C977.958740,552.147644 976.501770,551.130371 972.040466,551.139526 
	C907.710876,551.271912 843.380981,551.207825 779.051147,551.258057 
	C770.895264,551.264404 762.731262,551.483276 754.585266,551.889221 
	C713.764587,553.923157 682.459961,577.339600 668.852661,615.784546 
	C662.041321,635.028748 660.055054,654.928711 659.840454,675.205444 
	C658.849670,768.819092 662.170776,862.459656 658.011963,956.450195 
	C657.700867,957.988342 657.437805,959.124329 657.232300,960.270691 
	C641.110474,1050.208008 557.357971,1110.423950 467.280914,1096.837158 
	C394.300781,1085.829346 337.178467,1027.787842 326.869904,953.677490 
	C326.352661,944.122803 325.288269,934.997131 325.274017,925.869934 
	C325.144165,842.718201 325.150940,759.566162 325.236145,676.414368 
	C325.253082,659.859131 324.097290,643.464478 319.879089,627.421448 
	C311.849030,596.881104 295.520020,572.915833 265.609924,559.940369 
	C250.684311,553.465454 234.912720,551.278320 218.814682,551.261475 
	C150.660172,551.189941 82.505539,551.230286 14.350949,551.230225 
	C7.276830,551.230225 7.273964,551.231750 7.274578,558.141235 
	C7.285257,678.453247 7.242348,798.765259 7.375640,919.077148 
	C7.392601,934.386353 7.993283,949.714783 8.909697,964.999146 
	C11.160680,1002.542114 18.311899,1039.224731 29.712761,1075.033936 
	C58.829990,1166.488892 110.649651,1242.647949 184.312714,1304.099487 
	C226.824554,1339.563965 274.857452,1365.419312 326.078644,1386.533203 
	C362.220886,1399.821655 399.043335,1408.903076 437.006989,1413.239990 
	C444.018280,1414.040894 451.003021,1415.073975 458.000000,1416.000000 
z"/>
<path fill="#606062" opacity="1.000000" stroke="none" 
	d="
M458.468658,1416.000000 
	C451.003021,1415.073975 444.018280,1414.040894 437.006989,1413.239990 
	C399.043335,1408.903076 362.220886,1399.821655 326.138733,1386.045776 
	C325.955536,1383.154907 325.998322,1380.989014 325.998352,1378.823120 
	C326.001709,1239.342041 325.998016,1099.861084 326.035309,960.380066 
	C326.035858,958.288635 326.540466,956.197266 326.809845,954.105896 
	C337.178467,1027.787842 394.300781,1085.829346 467.280914,1096.837158 
	C557.357971,1110.423950 641.110474,1050.208008 657.232300,960.270691 
	C657.437805,959.124329 657.700867,957.988342 658.310547,956.736816 
	C658.797485,958.607910 659.010254,960.589539 659.010498,962.571228 
	C659.026062,1101.773926 659.025208,1240.976562 659.019409,1380.179321 
	C659.019287,1382.342773 658.940796,1384.506348 658.898865,1386.669800 
	C616.423950,1402.338989 572.610291,1411.864136 527.235657,1415.653442 
	C504.312439,1416.000000 481.624878,1416.000000 458.468658,1416.000000 
z"/>
<path fill="#FFFEFE" opacity="1.000000" stroke="none" 
	d="
M7.105155,2.231744 
	C7.081523,2.026974 7.057890,1.822205 7.017129,1.308718 
	C8.066787,1.000000 9.133574,1.000000 10.600180,1.000000 
	C11.000000,1.000000 11.000641,1.415138 10.602283,1.655928 
	C9.171001,2.008394 8.138079,2.120069 7.105155,2.231744 
z"/>
<path fill="#848688" opacity="1.000000" stroke="none" 
	d="
M659.238770,1386.604980 
	C658.940796,1384.506348 659.019287,1382.342773 659.019409,1380.179321 
	C659.025208,1240.976562 659.026062,1101.773926 659.010498,962.571228 
	C659.010254,960.589539 658.797485,958.607910 658.385376,956.339600 
	C662.170776,862.459656 658.849670,768.819092 659.840454,675.205444 
	C660.055054,654.928711 662.041321,635.028748 668.852661,615.784546 
	C682.459961,577.339600 713.764587,553.923157 754.585266,551.889221 
	C762.731262,551.483276 770.895264,551.264404 779.051147,551.258057 
	C843.380981,551.207825 907.710876,551.271912 972.040466,551.139526 
	C976.501770,551.130371 977.958740,552.147644 977.953430,556.891235 
	C977.814087,681.550903 978.476807,806.215027 977.652527,930.869446 
	C976.851379,1052.034912 936.217651,1158.700684 856.504028,1250.106323 
	C807.278503,1306.552002 747.470703,1348.532227 678.689575,1377.910156 
	C672.263000,1380.655151 665.946411,1383.657471 659.238770,1386.604980 
z"/>
<path fill="#848688" opacity="1.000000" stroke="none" 
	d="
M326.869904,953.677490 
	C326.540466,956.197266 326.035858,958.288635 326.035309,960.380066 
	C325.998016,1099.861084 326.001709,1239.342041 325.998352,1378.823120 
	C325.998322,1380.989014 325.955536,1383.154907 325.872620,1385.808105 
	C274.857452,1365.419312 226.824554,1339.563965 184.312714,1304.099487 
	C110.649651,1242.647949 58.829990,1166.488892 29.712761,1075.033936 
	C18.311899,1039.224731 11.160680,1002.542114 8.909697,964.999146 
	C7.993283,949.714783 7.392601,934.386353 7.375640,919.077148 
	C7.242348,798.765259 7.285257,678.453247 7.274578,558.141235 
	C7.273964,551.231750 7.276830,551.230225 14.350949,551.230225 
	C82.505539,551.230286 150.660172,551.189941 218.814682,551.261475 
	C234.912720,551.278320 250.684311,553.465454 265.609924,559.940369 
	C295.520020,572.915833 311.849030,596.881104 319.879089,627.421448 
	C324.097290,643.464478 325.253082,659.859131 325.236145,676.414368 
	C325.150940,759.566162 325.144165,842.718201 325.274017,925.869934 
	C325.288269,934.997131 326.352661,944.122803 326.869904,953.677490 
z"/>
<path fill="#ED3237" opacity="1.000000" stroke="none" 
	d="
M7.185093,2.678051 
	C8.138079,2.120069 9.171001,2.008394 10.602707,1.863497 
	C28.467489,4.215927 45.878906,7.152973 63.409283,8.888246 
	C126.801476,15.163224 190.427429,15.563361 254.057007,16.135561 
	C292.232239,16.478855 330.178833,19.836643 367.575317,28.150543 
	C412.006714,38.028435 451.062958,58.655083 486.358368,86.937103 
	C488.046875,88.290108 489.754822,89.618858 491.763062,91.195381 
	C492.072418,91.431877 492.028961,91.535057 492.021118,92.037582 
	C492.009277,193.007492 492.000336,293.474884 492.042114,393.942230 
	C492.042847,395.676300 492.655762,397.410095 492.983948,399.271301 
	C492.984863,399.398560 492.970825,399.652710 492.927887,399.943024 
	C492.890228,400.428894 492.895538,400.624451 492.900818,400.820038 
	C491.709259,399.809052 490.291656,398.972351 489.358521,397.762115 
	C444.889221,340.086151 385.786713,307.883270 314.380493,296.891632 
	C287.972198,292.826569 261.428467,290.982635 234.735489,290.957336 
	C202.404160,290.926697 170.072128,291.041534 137.741638,290.864258 
	C95.516724,290.632721 53.612926,286.821838 12.034363,279.324249 
	C7.768210,278.554932 7.227387,276.784058 7.230863,273.107452 
	C7.315145,183.946304 7.296640,94.785072 7.295198,5.623854 
	C7.295185,4.790689 7.275520,3.957524 7.185093,2.678051 
z"/>
<path fill="#B22D30" opacity="1.000000" stroke="none" 
	d="
M492.970825,399.652710 
	C492.970825,399.652710 492.984863,399.398560 492.989746,398.786072 
	C492.995972,298.030426 493.003113,197.887283 492.958130,97.744171 
	C492.957184,95.674324 492.352173,93.604759 492.028961,91.535057 
	C492.028961,91.535057 492.072418,91.431877 492.065857,91.458176 
	C496.493805,88.281250 501.052307,85.235298 505.343567,81.850502 
	C548.703552,47.649921 598.232300,28.775862 652.731567,21.802198 
	C682.523560,17.990049 712.406494,16.405252 742.406128,15.860620 
	C785.041992,15.086577 827.692505,14.437963 870.294922,12.706703 
	C904.890625,11.300815 939.411133,8.251491 973.564697,2.092846 
	C974.691589,1.889642 975.844116,1.828657 977.813354,1.608898 
	C977.813354,3.651963 977.813354,5.381653 977.813354,7.111343 
	C977.813354,95.749260 977.784180,184.387222 977.906189,273.024963 
	C977.911804,277.119263 976.970154,278.623169 972.694275,279.392303 
	C932.277832,286.662262 891.543945,290.491882 850.506470,290.828461 
	C814.353699,291.125000 778.194153,290.684845 742.043091,291.073425 
	C700.253113,291.522614 658.989624,296.099579 619.069336,309.310333 
	C568.002075,326.209930 526.950012,357.021912 493.878845,399.684082 
	C493.268402,399.807892 493.119629,399.730316 492.970825,399.652710 
z"/>
<path fill="#E5696C" opacity="1.000000" stroke="none" 
	d="
M492.927887,399.943024 
	C493.119629,399.730316 493.268402,399.807892 493.662170,399.942261 
	C493.744385,400.279480 493.581604,400.559845 493.159790,400.830139 
	C492.895538,400.624451 492.890228,400.428894 492.927887,399.943024 
z"/>
<path fill="#E5696C" opacity="1.000000" stroke="none" 
	d="
M492.021118,92.037582 
	C492.352173,93.604759 492.957184,95.674324 492.958130,97.744171 
	C493.003113,197.887283 492.995972,298.030426 492.988831,398.658783 
	C492.655762,397.410095 492.042847,395.676300 492.042114,393.942230 
	C492.000336,293.474884 492.009277,193.007492 492.021118,92.037582 
z"/>
</svg>